<svg width="50" height="50" viewBox="0 0 50 50" fill="none" xmlns="http://www.w3.org/2000/svg">
<path d="M45.1236 19.6067C44.618 17.6854 46.7753 14.6854 45.7978 13C44.8202 11.3146 41.1124 11.6517 39.7303 10.2697C38.3483 8.88764 38.7191 5.17978 37 4.20225C35.3146 3.22472 32.3146 5.38202 30.3933 4.8764C28.5393 4.37079 27.0225 1 25 1C22.9775 1 21.4607 4.40449 19.6067 4.8764C17.6854 5.38202 14.6854 3.22472 13 4.20225C11.3146 5.17978 11.6517 8.88764 10.2697 10.2697C8.88764 11.6517 5.17978 11.2809 4.20225 13C3.22472 14.6854 5.38202 17.6854 4.8764 19.6067C4.37079 21.4607 1 22.9775 1 25C1 27.0225 4.40449 28.5393 4.8764 30.3933C5.38202 32.3146 3.22472 35.3146 4.20225 37C5.17978 38.6854 8.88764 38.3483 10.2697 39.7303C11.6517 41.1124 11.2809 44.8202 13 45.7978C14.6854 46.7753 17.6854 44.618 19.6067 45.1236C21.4607 45.6292 22.9775 49 25 49C27.0225 49 28.5393 45.5955 30.3933 45.1236C32.3146 44.618 35.3146 46.7753 37 45.7978C38.6854 44.8202 38.3483 41.1124 39.7303 39.7303C41.1124 38.3483 44.8202 38.7191 45.7978 37C46.7753 35.3146 44.618 32.3146 45.1236 30.3933C45.6292 28.5393 49 27.0225 49 25C49 22.9775 45.6292 21.4607 45.1236 19.6067Z" stroke="white" stroke-width="2" stroke-miterlimit="10" stroke-linecap="round" stroke-linejoin="round"/>
<path d="M34.7968 15.1699L15.1387 34.8281" stroke="white" stroke-width="2" stroke-miterlimit="10" stroke-linecap="round" stroke-linejoin="round"/>
<path d="M18.068 21.802C20.1129 21.802 21.7707 20.1442 21.7707 18.0992C21.7707 16.0543 20.1129 14.3965 18.068 14.3965C16.023 14.3965 14.3652 16.0543 14.3652 18.0992C14.3652 20.1442 16.023 21.802 18.068 21.802Z" stroke="white" stroke-width="2" stroke-miterlimit="10" stroke-linecap="round" stroke-linejoin="round"/>
<path d="M31.8668 35.6047C33.9118 35.6047 35.5695 33.9469 35.5695 31.902C35.5695 29.857 33.9118 28.1992 31.8668 28.1992C29.8218 28.1992 28.1641 29.857 28.1641 31.902C28.1641 33.9469 29.8218 35.6047 31.8668 35.6047Z" stroke="white" stroke-width="2" stroke-miterlimit="10" stroke-linecap="round" stroke-linejoin="round"/>
</svg>
