<svg width="84" height="37" viewBox="0 0 84 37" fill="none" xmlns="http://www.w3.org/2000/svg">
<path d="M67.2188 11.9551V18.7065L77.6565 19.7667" stroke="white" stroke-width="2" stroke-miterlimit="10" stroke-linecap="round" stroke-linejoin="round"/>
<path d="M76.717 31.8201H81.7857L82.9997 27.5791L81.7857 26.8114V18.1832L78.4191 10.1156C77.8559 8.77509 76.5168 7.89765 75.0275 7.89765H64.9027C62.2494 1.52403 58.0693 1 58.0693 1V7.89765V31.8201" stroke="white" stroke-width="2" stroke-miterlimit="10" stroke-linecap="round" stroke-linejoin="round"/>
<path d="M68.1196 31.8203H54.2402" stroke="white" stroke-width="2" stroke-miterlimit="10" stroke-linecap="round" stroke-linejoin="round"/>
<path d="M68.1182 31.8207C68.1182 34.1362 70.0455 36.0007 72.4109 36.0007C74.7888 36.0007 76.7036 34.124 76.7036 31.8207C76.7036 29.5052 74.7763 27.6407 72.4109 27.6407C70.0455 27.6285 68.1182 29.5052 68.1182 31.8207Z" stroke="white" stroke-width="2" stroke-miterlimit="10" stroke-linecap="round" stroke-linejoin="round"/>
<path d="M33.4268 31.8207C33.4268 34.1362 35.3541 36.0007 37.7195 36.0007C40.0974 36.0007 42.0122 34.124 42.0122 31.8207C42.0122 29.5052 40.0849 27.6407 37.7195 27.6407C35.3416 27.6285 33.4268 29.5052 33.4268 31.8207Z" stroke="white" stroke-width="2" stroke-miterlimit="10" stroke-linecap="round" stroke-linejoin="round"/>
<path d="M6.30664 31.8207C6.30664 34.1362 8.23399 36.0007 10.5994 36.0007C12.9773 36.0007 14.8921 34.124 14.8921 31.8207C14.8921 29.5052 12.9647 27.6407 10.5994 27.6407C8.22147 27.6285 6.30664 29.5052 6.30664 31.8207Z" stroke="white" stroke-width="2" stroke-miterlimit="10" stroke-linecap="round" stroke-linejoin="round"/>
<path d="M45.6416 31.8207C45.6416 34.1362 47.569 36.0007 49.9343 36.0007C52.3122 36.0007 54.2271 34.124 54.2271 31.8207C54.2271 29.5052 52.2997 27.6407 49.9343 27.6407C47.569 27.6285 45.6416 29.5052 45.6416 31.8207Z" stroke="white" stroke-width="2" stroke-miterlimit="10" stroke-linecap="round" stroke-linejoin="round"/>
<path d="M6.30566 31.8203H1.01172" stroke="white" stroke-width="2" stroke-miterlimit="10" stroke-linecap="round" stroke-linejoin="round"/>
<path d="M45.6421 31.8203H42.0127" stroke="white" stroke-width="2" stroke-miterlimit="10" stroke-linecap="round" stroke-linejoin="round"/>
<path d="M14.8916 31.8203H33.4267" stroke="white" stroke-width="2" stroke-miterlimit="10" stroke-linecap="round" stroke-linejoin="round"/>
<path d="M45.6919 7.89844H9.54791C4.82966 7.89844 1 11.6276 1 16.2219C1 20.8163 4.82966 24.5454 9.54791 24.5454H45.6919C50.4102 24.5454 54.2398 20.8163 54.2398 16.2219C54.2398 11.6154 50.4102 7.89844 45.6919 7.89844Z" stroke="white" stroke-width="2" stroke-miterlimit="10" stroke-linecap="round" stroke-linejoin="round"/>
</svg>
